<svg width="45" height="45" viewBox="0 0 45 45" fill="none" xmlns="http://www.w3.org/2000/svg">
<rect width="45" height="45" rx="16.0714" fill="#4BA6DB"/>
<path fill-rule="evenodd" clip-rule="evenodd" d="M27.0071 15.26C26.6382 14.9133 26.0401 14.9133 25.6712 15.26C25.3023 15.6067 25.3023 16.1687 25.6712 16.5154L32.0524 22.5119L25.6716 28.508C25.3027 28.8547 25.3027 29.4167 25.6716 29.7634C26.0405 30.1101 26.6386 30.1101 27.0075 29.7634L34.0209 23.1728C34.2158 22.9897 34.3077 22.7466 34.2967 22.5068C34.3048 22.2702 34.2127 22.0312 34.0205 21.8506L27.0071 15.26Z" fill="white"/>
<path d="M10.0568 22.4686C10.0883 21.9634 10.5241 21.5538 11.0304 21.5538H32.1969C32.7031 21.5538 33.088 21.9634 33.0565 22.4686V22.4686C33.0251 22.9738 32.5892 23.3834 32.083 23.3834L10.9165 23.3834C10.4103 23.3834 10.0254 22.9738 10.0568 22.4686V22.4686Z" fill="white"/>
</svg>
